<svg id="Layer_1" data-name="Layer 1" xmlns="http://www.w3.org/2000/svg" viewBox="0 0 465.53 455.36"><defs><style>.cls-1{fill:#ffb600;}.cls-2{fill:#117b30;}.cls-3{fill:#f17525;}</style></defs><path class="cls-1" d="M302.29,236.1q-11.87-8.15-42.53-17.3V138.49c10.59,2.1,18.64,7.45,24.07,16.14a48.3,48.3,0,0,1,6.64,21.22h28.34q-.81-27.47-18.06-44.18-14.89-14.44-41-18.08V91.47H229.12v21.87q-27.7,2.14-43.85,19.75-18.06,19.77-18.06,44.38,0,27.54,16.76,43.09,15.09,14,45.15,20.75v88.85q-21.94-3.78-30.76-19.71-5.72-10.2-7-32.4H162.67q0,27.87,9.23,44.22,15.61,28.07,57.22,32.75v32h30.64V354.49q23.14-3.63,36.37-12.13,28-18.15,28-61.23Q324.15,251.34,302.29,236.1Zm-95.23-35.47q-10.69-9.06-10.7-25.1,0-13.28,9.06-25.43Q213,140,229.12,137.77v73.88Q215.7,207.92,207.06,200.63Zm82.43,111c-5.88,10.58-15.82,17-29.73,19.3V249.15q13.67,4.38,20.34,9.14Q295,268.83,295,289.07A44.88,44.88,0,0,1,289.49,311.58Z" transform="translate(-13.03 -6.8)"/><path class="cls-2" d="M449.4,185.69C435.21,84.6,348.42,6.8,243.41,6.8S51.62,84.6,37.43,185.69H78c13.83-78.93,82.56-139,165.45-139s151.62,60,165.46,139h-22.3l46,86.66,46-86.66Z" transform="translate(-13.03 -6.8)"/><path class="cls-3" d="M42.2,283.27c14.19,101.09,101,178.89,206,178.89s191.79-77.8,206-178.89H413.64c-13.83,78.93-82.56,139-165.45,139S96.57,362.2,82.73,283.27H105L59,196.61,13,283.27Z" transform="translate(-13.03 -6.8)"/></svg>